<?xml version="1.0" encoding="UTF-8"?>
<svg version="1.1" xmlns="http://www.w3.org/2000/svg" width="1500" height="1500">
<path d="M0 0 C0.81925398 -0.00282738 1.63850796 -0.00565475 2.48258781 -0.00856781 C6.83938777 -0.02344459 11.19615575 -0.03274005 15.55297852 -0.03710938 C19.05731925 -0.04144176 22.56140649 -0.05514403 26.06567383 -0.078125 C45.16699669 -0.2006666 64.14130373 0.07173073 83.19140625 1.57421875 C83.97179827 1.63563301 84.75219028 1.69704727 85.55623055 1.76032257 C164.12681361 8.09333824 242.20031777 26.95888565 322.30859375 61.203125 C323.3877002 61.67282715 324.46680664 62.1425293 325.57861328 62.62646484 C364.51307222 79.73166631 402.43532946 99.93758237 437.53271484 123.98779297 C439.38631978 125.25631721 441.24742533 126.5132931 443.109375 127.76953125 C458.63238196 138.28885582 473.68989401 149.46123 488.30859375 161.203125 C488.94361816 161.71198242 489.57864258 162.22083984 490.23291016 162.74511719 C503.68226998 173.54004127 516.78738043 184.63460874 529.38110352 196.41918945 C530.87004678 197.79723992 532.37012776 199.16326236 533.87475586 200.52416992 C541.3874258 207.33508294 548.63473776 214.37390195 555.79223633 221.55639648 C557.63314083 223.40270746 559.47939647 225.24354773 561.32617188 227.08398438 C566.68067195 232.43547176 571.98649504 237.7767228 576.89624023 243.5456543 C579.08088978 246.10945477 581.38782564 248.55094902 583.68359375 251.015625 C587.97734755 255.66351042 592.04391215 260.44728848 596.01171875 265.37890625 C598.03410505 267.86561594 600.1006412 270.30638784 602.19116211 272.73583984 C608.67121768 280.28144285 614.71656753 288.12617988 620.69873047 296.06982422 C622.23925217 298.11123742 623.79000272 300.1444249 625.34375 302.17578125 C633.03494056 312.27110053 640.2568014 322.65293297 647.30859375 333.203125 C647.8303418 333.98107422 648.35208984 334.75902344 648.88964844 335.56054688 C663.65245824 357.65417252 677.02001534 380.6497232 689.30859375 404.203125 C689.61025452 404.77875183 689.91191528 405.35437866 690.22271729 405.94744873 C729.13694352 480.25014094 754.12248588 561.35567079 770.546875 685.26171875 C770.61012466 685.93017822 770.67337433 686.5986377 770.73854065 687.28735352 C771.95996468 700.83076981 772.47912078 714.3037633 772.51171875 727.89453125 C772.51454613 728.71378523 772.5173735 729.53303921 772.52028656 730.37711906 C772.53516334 734.73391902 772.5444588 739.090687 772.54882812 743.44750977 C772.55316051 746.9518505 772.56686278 750.45593774 772.58984375 753.96020508 C772.71238535 773.06152794 772.43998802 792.03583498 770.9375 811.0859375 C770.87608574 811.86632952 770.81467148 812.64672153 770.75139618 813.4507618 C764.41838051 892.02134486 745.5528331 970.09484902 711.30859375 1050.203125 C710.8388916 1051.28223145 710.36918945 1052.36133789 709.88525391 1053.47314453 C698.49899067 1079.39029022 685.68522993 1104.81939571 671.30859375 1129.203125 C670.52597168 1130.54286377 670.52597168 1130.54286377 669.72753906 1131.90966797 C652.44607779 1161.3894973 632.70180787 1189.5684997 611.30859375 1216.203125 C610.79973633 1216.83814941 610.29087891 1217.47317383 609.76660156 1218.12744141 C598.97167748 1231.57680123 587.87711001 1244.68191168 576.0925293 1257.27563477 C574.71447883 1258.76457803 573.34845639 1260.26465901 571.98754883 1261.76928711 C565.17663581 1269.28195705 558.1378168 1276.52926901 550.95532227 1283.68676758 C549.10901129 1285.52767208 547.26817102 1287.37392772 545.42773438 1289.22070312 C540.07624699 1294.5752032 534.73499595 1299.88102629 528.96606445 1304.79077148 C526.40226398 1306.97542103 523.96076973 1309.28235689 521.49609375 1311.578125 C516.84820833 1315.8718788 512.06443027 1319.9384434 507.1328125 1323.90625 C504.64610281 1325.9286363 502.20533091 1327.99517245 499.77587891 1330.08569336 C492.38901585 1336.42942534 484.72442056 1342.37506613 476.93969727 1348.22119141 C474.90761346 1349.75190091 472.88372194 1351.2917725 470.86303711 1352.83740234 C460.66356499 1360.60551982 450.17659318 1367.86436304 439.49609375 1374.953125 C438.64820282 1375.51728119 437.80031189 1376.08143738 436.92672729 1376.66268921 C422.33376924 1386.35855755 407.58405377 1395.61376844 392.30859375 1404.203125 C391.33599609 1404.75145996 390.36339844 1405.29979492 389.36132812 1405.86474609 C382.40442637 1409.76196419 375.37813624 1413.51471396 368.30859375 1417.203125 C367.4451535 1417.65561615 367.4451535 1417.65561615 366.56427002 1418.11724854 C292.26157781 1457.03147477 211.15604796 1482.01701713 87.25 1498.44140625 C86.58154053 1498.50465591 85.91308105 1498.56790558 85.22436523 1498.6330719 C71.68094894 1499.85449593 58.20795545 1500.37365203 44.6171875 1500.40625 C43.79793352 1500.40907738 42.97867954 1500.41190475 42.13459969 1500.41481781 C37.77779973 1500.42969459 33.42103175 1500.43899005 29.06420898 1500.44335938 C25.55986825 1500.44769176 22.05578101 1500.46139403 18.55151367 1500.484375 C-0.54980919 1500.6069166 -19.52411623 1500.33451927 -38.57421875 1498.83203125 C-39.35461077 1498.77061699 -40.13500278 1498.70920273 -40.93904305 1498.64592743 C-119.50962611 1492.31291176 -197.58313027 1473.44736435 -277.69140625 1439.203125 C-278.7705127 1438.73342285 -279.84961914 1438.2637207 -280.96142578 1437.77978516 C-306.87857147 1426.39352192 -332.30767696 1413.57976118 -356.69140625 1399.203125 C-357.58456543 1398.68137695 -358.47772461 1398.15962891 -359.39794922 1397.62207031 C-388.87777855 1380.34060904 -417.05678095 1360.59633912 -443.69140625 1339.203125 C-444.32643066 1338.69426758 -444.96145508 1338.18541016 -445.61572266 1337.66113281 C-459.06508248 1326.86620873 -472.17019293 1315.77164126 -484.76391602 1303.98706055 C-486.25285928 1302.60901008 -487.75294026 1301.24298764 -489.25756836 1299.88208008 C-496.7702383 1293.07116706 -504.01755026 1286.03234805 -511.17504883 1278.84985352 C-513.01595333 1277.00354254 -514.86220897 1275.16270227 -516.70898438 1273.32226562 C-522.06348445 1267.97077824 -527.36930754 1262.6295272 -532.27905273 1256.8605957 C-534.46370228 1254.29679523 -536.77063814 1251.85530098 -539.06640625 1249.390625 C-543.36016005 1244.74273958 -547.42672465 1239.95896152 -551.39453125 1235.02734375 C-553.41691755 1232.54063406 -555.4834537 1230.09986216 -557.57397461 1227.67041016 C-563.91770659 1220.2835471 -569.86334738 1212.61895181 -575.70947266 1204.83422852 C-577.24018216 1202.80214471 -578.78005375 1200.77825319 -580.32568359 1198.75756836 C-588.09380107 1188.55809624 -595.35264429 1178.07112443 -602.44140625 1167.390625 C-603.00556244 1166.54273407 -603.56971863 1165.69484314 -604.15097046 1164.82125854 C-613.8468388 1150.22830049 -623.10204969 1135.47858502 -631.69140625 1120.203125 C-632.51390869 1118.74422852 -632.51390869 1118.74422852 -633.35302734 1117.25585938 C-637.25024544 1110.29895762 -641.00299521 1103.27266749 -644.69140625 1096.203125 C-644.99306702 1095.62749817 -645.29472778 1095.05187134 -645.60552979 1094.45880127 C-684.51975602 1020.15610906 -709.50529838 939.05057921 -725.9296875 815.14453125 C-725.99293716 814.47607178 -726.05618683 813.8076123 -726.12135315 813.11889648 C-727.34277718 799.57548019 -727.86193328 786.1024867 -727.89453125 772.51171875 C-727.89735863 771.69246477 -727.900186 770.87321079 -727.90309906 770.02913094 C-727.91797584 765.67233098 -727.9272713 761.315563 -727.93164062 756.95874023 C-727.93597301 753.4543995 -727.94967528 749.95031226 -727.97265625 746.44604492 C-728.09519785 727.34472206 -727.82280052 708.37041502 -726.3203125 689.3203125 C-726.25889824 688.53992048 -726.19748398 687.75952847 -726.13420868 686.9554882 C-719.80119301 608.38490514 -700.9356456 530.31140098 -666.69140625 450.203125 C-666.2217041 449.12401855 -665.75200195 448.04491211 -665.26806641 446.93310547 C-648.16286494 407.99864653 -627.95694888 370.07638929 -603.90673828 334.97900391 C-602.63821404 333.12539897 -601.38123815 331.26429342 -600.125 329.40234375 C-589.60567543 313.87933679 -578.43330125 298.82182474 -566.69140625 284.203125 C-566.18254883 283.56810059 -565.67369141 282.93307617 -565.14941406 282.27880859 C-554.35448998 268.82944877 -543.25992251 255.72433832 -531.4753418 243.13061523 C-530.09729133 241.64167197 -528.73126889 240.14159099 -527.37036133 238.63696289 C-520.55944831 231.12429295 -513.5206293 223.87698099 -506.33813477 216.71948242 C-504.49182379 214.87857792 -502.65098352 213.03232228 -500.81054688 211.18554688 C-495.45905949 205.8310468 -490.11780845 200.52522371 -484.34887695 195.61547852 C-481.78507648 193.43082897 -479.34358223 191.12389311 -476.87890625 188.828125 C-472.23102083 184.5343712 -467.44724277 180.4678066 -462.515625 176.5 C-460.02891531 174.4776137 -457.58814341 172.41107755 -455.15869141 170.32055664 C-447.6130884 163.84050107 -439.76835137 157.79515122 -431.82470703 151.81298828 C-429.78329383 150.27246658 -427.75010635 148.72171603 -425.71875 147.16796875 C-415.62343072 139.47677819 -405.24159828 132.25491735 -394.69140625 125.203125 C-393.91345703 124.68137695 -393.13550781 124.15962891 -392.33398438 123.62207031 C-370.24035873 108.85926051 -347.24480805 95.49170341 -323.69140625 83.203125 C-323.11577942 82.90146423 -322.54015259 82.59980347 -321.94708252 82.28900146 C-247.64439031 43.37477523 -166.53886046 18.38923287 -42.6328125 1.96484375 C-41.96435303 1.90159409 -41.29589355 1.83834442 -40.60717773 1.7731781 C-27.06376144 0.55175407 -13.59076795 0.03259797 0 0 Z " fill="#E9E9E9" transform="translate(727.69140625,-0.203125)"/>
<path d="M0 0 C0.81925398 -0.00282738 1.63850796 -0.00565475 2.48258781 -0.00856781 C6.83938777 -0.02344459 11.19615575 -0.03274005 15.55297852 -0.03710938 C19.05731925 -0.04144176 22.56140649 -0.05514403 26.06567383 -0.078125 C45.16699669 -0.2006666 64.14130373 0.07173073 83.19140625 1.57421875 C83.97179827 1.63563301 84.75219028 1.69704727 85.55623055 1.76032257 C164.12681361 8.09333824 242.20031777 26.95888565 322.30859375 61.203125 C323.3877002 61.67282715 324.46680664 62.1425293 325.57861328 62.62646484 C364.51307222 79.73166631 402.43532946 99.93758237 437.53271484 123.98779297 C439.38631978 125.25631721 441.24742533 126.5132931 443.109375 127.76953125 C458.63238196 138.28885582 473.68989401 149.46123 488.30859375 161.203125 C488.94361816 161.71198242 489.57864258 162.22083984 490.23291016 162.74511719 C503.68226998 173.54004127 516.78738043 184.63460874 529.38110352 196.41918945 C530.87004678 197.79723992 532.37012776 199.16326236 533.87475586 200.52416992 C541.3874258 207.33508294 548.63473776 214.37390195 555.79223633 221.55639648 C557.63314083 223.40270746 559.47939647 225.24354773 561.32617188 227.08398438 C566.68067195 232.43547176 571.98649504 237.7767228 576.89624023 243.5456543 C579.08088978 246.10945477 581.38782564 248.55094902 583.68359375 251.015625 C587.97734755 255.66351042 592.04391215 260.44728848 596.01171875 265.37890625 C598.03410505 267.86561594 600.1006412 270.30638784 602.19116211 272.73583984 C608.67121768 280.28144285 614.71656753 288.12617988 620.69873047 296.06982422 C622.23925217 298.11123742 623.79000272 300.1444249 625.34375 302.17578125 C633.03494056 312.27110053 640.2568014 322.65293297 647.30859375 333.203125 C647.8303418 333.98107422 648.35208984 334.75902344 648.88964844 335.56054688 C663.65245824 357.65417252 677.02001534 380.6497232 689.30859375 404.203125 C689.61025452 404.77875183 689.91191528 405.35437866 690.22271729 405.94744873 C729.13694352 480.25014094 754.12248588 561.35567079 770.546875 685.26171875 C770.61012466 685.93017822 770.67337433 686.5986377 770.73854065 687.28735352 C771.95996468 700.83076981 772.47912078 714.3037633 772.51171875 727.89453125 C772.51454613 728.71378523 772.5173735 729.53303921 772.52028656 730.37711906 C772.53516334 734.73391902 772.5444588 739.090687 772.54882812 743.44750977 C772.55316051 746.9518505 772.56686278 750.45593774 772.58984375 753.96020508 C772.71238535 773.06152794 772.43998802 792.03583498 770.9375 811.0859375 C770.87608574 811.86632952 770.81467148 812.64672153 770.75139618 813.4507618 C764.41838051 892.02134486 745.5528331 970.09484902 711.30859375 1050.203125 C710.8388916 1051.28223145 710.36918945 1052.36133789 709.88525391 1053.47314453 C698.49899067 1079.39029022 685.68522993 1104.81939571 671.30859375 1129.203125 C670.52597168 1130.54286377 670.52597168 1130.54286377 669.72753906 1131.90966797 C652.44607779 1161.3894973 632.70180787 1189.5684997 611.30859375 1216.203125 C610.79973633 1216.83814941 610.29087891 1217.47317383 609.76660156 1218.12744141 C598.97167748 1231.57680123 587.87711001 1244.68191168 576.0925293 1257.27563477 C574.71447883 1258.76457803 573.34845639 1260.26465901 571.98754883 1261.76928711 C565.17663581 1269.28195705 558.1378168 1276.52926901 550.95532227 1283.68676758 C549.10901129 1285.52767208 547.26817102 1287.37392772 545.42773438 1289.22070312 C540.07624699 1294.5752032 534.73499595 1299.88102629 528.96606445 1304.79077148 C526.40226398 1306.97542103 523.96076973 1309.28235689 521.49609375 1311.578125 C516.84820833 1315.8718788 512.06443027 1319.9384434 507.1328125 1323.90625 C504.64610281 1325.9286363 502.20533091 1327.99517245 499.77587891 1330.08569336 C492.38901585 1336.42942534 484.72442056 1342.37506613 476.93969727 1348.22119141 C474.90761346 1349.75190091 472.88372194 1351.2917725 470.86303711 1352.83740234 C460.66356499 1360.60551982 450.17659318 1367.86436304 439.49609375 1374.953125 C438.64820282 1375.51728119 437.80031189 1376.08143738 436.92672729 1376.66268921 C422.33376924 1386.35855755 407.58405377 1395.61376844 392.30859375 1404.203125 C391.33599609 1404.75145996 390.36339844 1405.29979492 389.36132812 1405.86474609 C382.40442637 1409.76196419 375.37813624 1413.51471396 368.30859375 1417.203125 C367.4451535 1417.65561615 367.4451535 1417.65561615 366.56427002 1418.11724854 C292.26157781 1457.03147477 211.15604796 1482.01701713 87.25 1498.44140625 C86.58154053 1498.50465591 85.91308105 1498.56790558 85.22436523 1498.6330719 C71.68094894 1499.85449593 58.20795545 1500.37365203 44.6171875 1500.40625 C43.79793352 1500.40907738 42.97867954 1500.41190475 42.13459969 1500.41481781 C37.77779973 1500.42969459 33.42103175 1500.43899005 29.06420898 1500.44335938 C25.55986825 1500.44769176 22.05578101 1500.46139403 18.55151367 1500.484375 C-0.54980919 1500.6069166 -19.52411623 1500.33451927 -38.57421875 1498.83203125 C-39.35461077 1498.77061699 -40.13500278 1498.70920273 -40.93904305 1498.64592743 C-119.50962611 1492.31291176 -197.58313027 1473.44736435 -277.69140625 1439.203125 C-278.7705127 1438.73342285 -279.84961914 1438.2637207 -280.96142578 1437.77978516 C-306.87857147 1426.39352192 -332.30767696 1413.57976118 -356.69140625 1399.203125 C-357.58456543 1398.68137695 -358.47772461 1398.15962891 -359.39794922 1397.62207031 C-388.87777855 1380.34060904 -417.05678095 1360.59633912 -443.69140625 1339.203125 C-444.32643066 1338.69426758 -444.96145508 1338.18541016 -445.61572266 1337.66113281 C-459.06508248 1326.86620873 -472.17019293 1315.77164126 -484.76391602 1303.98706055 C-486.25285928 1302.60901008 -487.75294026 1301.24298764 -489.25756836 1299.88208008 C-496.7702383 1293.07116706 -504.01755026 1286.03234805 -511.17504883 1278.84985352 C-513.01595333 1277.00354254 -514.86220897 1275.16270227 -516.70898438 1273.32226562 C-522.06348445 1267.97077824 -527.36930754 1262.6295272 -532.27905273 1256.8605957 C-534.46370228 1254.29679523 -536.77063814 1251.85530098 -539.06640625 1249.390625 C-543.36016005 1244.74273958 -547.42672465 1239.95896152 -551.39453125 1235.02734375 C-553.41691755 1232.54063406 -555.4834537 1230.09986216 -557.57397461 1227.67041016 C-563.91770659 1220.2835471 -569.86334738 1212.61895181 -575.70947266 1204.83422852 C-577.24018216 1202.80214471 -578.78005375 1200.77825319 -580.32568359 1198.75756836 C-588.09380107 1188.55809624 -595.35264429 1178.07112443 -602.44140625 1167.390625 C-603.00556244 1166.54273407 -603.56971863 1165.69484314 -604.15097046 1164.82125854 C-613.8468388 1150.22830049 -623.10204969 1135.47858502 -631.69140625 1120.203125 C-632.51390869 1118.74422852 -632.51390869 1118.74422852 -633.35302734 1117.25585938 C-637.25024544 1110.29895762 -641.00299521 1103.27266749 -644.69140625 1096.203125 C-644.99306702 1095.62749817 -645.29472778 1095.05187134 -645.60552979 1094.45880127 C-684.51975602 1020.15610906 -709.50529838 939.05057921 -725.9296875 815.14453125 C-725.99293716 814.47607178 -726.05618683 813.8076123 -726.12135315 813.11889648 C-727.34277718 799.57548019 -727.86193328 786.1024867 -727.89453125 772.51171875 C-727.89735863 771.69246477 -727.900186 770.87321079 -727.90309906 770.02913094 C-727.91797584 765.67233098 -727.9272713 761.315563 -727.93164062 756.95874023 C-727.93597301 753.4543995 -727.94967528 749.95031226 -727.97265625 746.44604492 C-728.09519785 727.34472206 -727.82280052 708.37041502 -726.3203125 689.3203125 C-726.25889824 688.53992048 -726.19748398 687.75952847 -726.13420868 686.9554882 C-719.80119301 608.38490514 -700.9356456 530.31140098 -666.69140625 450.203125 C-666.2217041 449.12401855 -665.75200195 448.04491211 -665.26806641 446.93310547 C-648.16286494 407.99864653 -627.95694888 370.07638929 -603.90673828 334.97900391 C-602.63821404 333.12539897 -601.38123815 331.26429342 -600.125 329.40234375 C-589.60567543 313.87933679 -578.43330125 298.82182474 -566.69140625 284.203125 C-566.18254883 283.56810059 -565.67369141 282.93307617 -565.14941406 282.27880859 C-554.35448998 268.82944877 -543.25992251 255.72433832 -531.4753418 243.13061523 C-530.09729133 241.64167197 -528.73126889 240.14159099 -527.37036133 238.63696289 C-520.55944831 231.12429295 -513.5206293 223.87698099 -506.33813477 216.71948242 C-504.49182379 214.87857792 -502.65098352 213.03232228 -500.81054688 211.18554688 C-495.45905949 205.8310468 -490.11780845 200.52522371 -484.34887695 195.61547852 C-481.78507648 193.43082897 -479.34358223 191.12389311 -476.87890625 188.828125 C-472.23102083 184.5343712 -467.44724277 180.4678066 -462.515625 176.5 C-460.02891531 174.4776137 -457.58814341 172.41107755 -455.15869141 170.32055664 C-447.6130884 163.84050107 -439.76835137 157.79515122 -431.82470703 151.81298828 C-429.78329383 150.27246658 -427.75010635 148.72171603 -425.71875 147.16796875 C-415.62343072 139.47677819 -405.24159828 132.25491735 -394.69140625 125.203125 C-393.91345703 124.68137695 -393.13550781 124.15962891 -392.33398438 123.62207031 C-370.24035873 108.85926051 -347.24480805 95.49170341 -323.69140625 83.203125 C-323.11577942 82.90146423 -322.54015259 82.59980347 -321.94708252 82.28900146 C-247.64439031 43.37477523 -166.53886046 18.38923287 -42.6328125 1.96484375 C-41.96435303 1.90159409 -41.29589355 1.83834442 -40.60717773 1.7731781 C-27.06376144 0.55175407 -13.59076795 0.03259797 0 0 Z M-71.69140625 47.203125 C-73.35267005 47.41902715 -75.0139647 47.6346921 -76.67529297 47.85009766 C-93.86035441 50.10767181 -110.82622073 53.19071745 -127.69140625 57.203125 C-129.51690637 57.63159866 -131.34242731 58.05998364 -133.16796875 58.48828125 C-136.7046232 59.322062 -140.23800498 60.16821408 -143.76953125 61.0234375 C-146.87859969 61.77469489 -149.99094631 62.50130388 -153.11328125 63.1953125 C-162.17553829 65.22202536 -170.96579136 67.76468154 -179.796875 70.6328125 C-183.93840321 71.97533641 -188.10124179 73.22862237 -192.27807617 74.45629883 C-223.97220982 83.78133055 -255.31966264 96.07222678 -284.69140625 111.203125 C-286.51952819 112.11567346 -288.35115269 113.02094499 -290.18286133 113.92626953 C-321.68200123 129.53555351 -351.91755194 146.98179737 -380.69140625 167.203125 C-381.25569336 167.5964502 -381.81998047 167.98977539 -382.40136719 168.39501953 C-408.52781209 186.61579003 -433.49695545 206.65225384 -456.75805664 228.41333008 C-458.26708124 229.81030688 -459.78666892 231.1958759 -461.31030273 232.5769043 C-468.35600952 238.96453335 -475.18209141 245.53685188 -481.89331055 252.2746582 C-483.51692854 253.90369072 -485.14590228 255.52723228 -486.77539062 257.15039062 C-491.75552089 262.12735515 -496.65014504 267.13634624 -501.22631836 272.49291992 C-503.43384333 275.06977585 -505.75370807 277.53277335 -508.06640625 280.015625 C-512.28538879 284.58744957 -516.30288093 289.27567344 -520.203125 294.125 C-522.06201111 296.42453259 -523.93755401 298.70226048 -525.8359375 300.96875 C-548.2934965 327.83572548 -568.69512368 356.68824423 -586.36425781 386.93164062 C-587.34746765 388.61445599 -588.33436591 390.29511753 -589.32324219 391.97460938 C-620.19655303 444.46426877 -645.9662043 501.27134948 -660.98632812 560.47753906 C-661.76743184 563.49701339 -662.5929557 566.50220134 -663.42578125 569.5078125 C-667.33513683 583.64912634 -670.81341365 597.81571792 -673.69140625 612.203125 C-673.86768555 613.07791504 -674.04396484 613.95270508 -674.22558594 614.85400391 C-678.42160445 635.96399196 -681.27400777 657.38011743 -683.09619141 678.82250977 C-683.16241699 679.59908936 -683.22864258 680.37566895 -683.296875 681.17578125 C-683.34996826 681.83843994 -683.40306152 682.50109863 -683.45776367 683.18383789 C-683.69140625 685.203125 -683.69140625 685.203125 -684.19848633 687.6340332 C-684.69808158 690.23791674 -684.88017512 692.68792726 -684.97265625 695.3359375 C-685.01003906 696.30789063 -685.04742188 697.27984375 -685.0859375 698.28125 C-685.13814453 699.78945312 -685.13814453 699.78945312 -685.19140625 701.328125 C-685.26162992 703.30999309 -685.33453991 705.29176784 -685.41015625 707.2734375 C-685.44044922 708.14758301 -685.47074219 709.02172852 -685.50195312 709.92236328 C-685.66619642 712.76656609 -685.91642627 715.57966933 -686.1940918 718.41430664 C-686.70047795 723.86811131 -686.88414486 729.27875344 -686.9296875 734.75390625 C-686.9393454 735.74633835 -686.9490033 736.73877045 -686.95895386 737.76127625 C-686.98386562 741.0127644 -686.9963943 744.26405132 -687.00390625 747.515625 C-687.00833237 749.2006311 -687.00833237 749.2006311 -687.0128479 750.91967773 C-687.02354808 769.07356765 -686.24821351 787.10277815 -684.87890625 805.203125 C-684.79613434 806.31813385 -684.71336243 807.4331427 -684.62808228 808.5819397 C-683.62758427 821.78609423 -682.21149152 834.84393043 -680.06655884 847.91168213 C-679.70184528 850.13936309 -679.35005602 852.36867651 -679.00268555 854.59912109 C-665.28997408 942.29268049 -636.90095408 1026.88214761 -590.69140625 1106.203125 C-590.28083984 1106.90679199 -589.87027344 1107.61045898 -589.44726562 1108.33544922 C-586.915532 1112.65815795 -584.32557083 1116.94213485 -581.69140625 1121.203125 C-581.01343994 1122.30019775 -581.01343994 1122.30019775 -580.32177734 1123.41943359 C-566.38579345 1145.88917189 -551.27531889 1167.60178072 -534.69140625 1188.203125 C-533.92594482 1189.15783691 -533.92594482 1189.15783691 -533.14501953 1190.13183594 C-522.75393736 1203.07882734 -512.11002902 1215.7437118 -500.7734375 1227.875 C-499.09115898 1229.67537262 -497.43575002 1231.49195674 -495.80249023 1233.3371582 C-489.74575747 1240.17540488 -483.38447254 1246.66353373 -476.91625977 1253.10864258 C-475.12464675 1254.8948717 -473.3384757 1256.68641847 -471.55273438 1258.47851562 C-466.29104357 1263.74326383 -461.03186988 1268.94752894 -455.36206055 1273.77758789 C-452.7950198 1275.96799428 -450.34813071 1278.27812012 -447.87890625 1280.578125 C-443.3084272 1284.79586587 -438.62201755 1288.8126514 -433.7734375 1292.7109375 C-431.45976507 1294.58181584 -429.16954046 1296.47044379 -426.890625 1298.3828125 C-417.21450596 1306.48215041 -407.27333529 1314.10568281 -397.046875 1321.49609375 C-394.75337895 1323.15821278 -392.47117539 1324.83474442 -390.19140625 1326.515625 C-353.98798578 1353.10406648 -314.45801255 1375.45320774 -273.71289062 1394.26220703 C-271.84853733 1395.12998693 -269.99591855 1396.02285969 -268.14453125 1396.91796875 C-249.46923771 1405.89647526 -230.09492017 1413.20284929 -210.56640625 1420.078125 C-209.80052185 1420.34884827 -209.03463745 1420.61957153 -208.24554443 1420.89849854 C-193.78321602 1425.99547239 -179.17587716 1430.41224975 -164.31640625 1434.203125 C-162.32408154 1434.71430927 -160.33189561 1435.22603472 -158.33984375 1435.73828125 C-157.3765918 1435.98594238 -156.41333984 1436.23360352 -155.42089844 1436.48876953 C-153.01633889 1437.11808449 -150.62235964 1437.7736756 -148.23046875 1438.44921875 C-112.99707759 1448.3150517 -76.61080469 1452.96454286 -40.2734375 1456.37109375 C-39.18070778 1456.47550781 -39.18070778 1456.47550781 -38.06590271 1456.58203125 C-24.80172828 1457.79846856 -11.59208341 1458.36852348 1.72265625 1458.40625 C3.25613429 1458.41318698 4.78961207 1458.42018207 6.3230896 1458.42723083 C11.19326074 1458.4463731 16.06338941 1458.45114739 20.93359375 1458.453125 C21.76157471 1458.45386143 22.58955566 1458.45459785 23.44262695 1458.4553566 C46.96950397 1458.47241734 70.33233403 1458.25371748 93.73779297 1455.60449219 C97.07276664 1455.22963257 100.40727004 1454.9134643 103.75 1454.6171875 C132.86844767 1451.86794476 162.29760881 1446.30411793 190.57958984 1438.90332031 C193.39408432 1438.18119022 196.21706087 1437.51094593 199.046875 1436.8515625 C215.09743626 1433.07173293 230.72366918 1428.13991634 246.33404541 1422.86914062 C248.27162129 1422.21559582 250.21064842 1421.56651466 252.14990234 1420.91796875 C283.54319274 1410.38118932 313.72142042 1397.03224114 343.30859375 1382.203125 C344.31245117 1381.70248535 345.31630859 1381.2018457 346.35058594 1380.68603516 C376.32352679 1365.65945373 405.20537206 1347.93412282 432.30859375 1328.203125 C433.47068359 1327.35983643 433.47068359 1327.35983643 434.65625 1326.49951172 C448.57011442 1316.38515963 462.16168725 1305.99043903 475.234375 1294.80859375 C478.0055853 1292.44448313 480.83786564 1290.16468542 483.68359375 1287.890625 C489.52551208 1283.1403352 494.97226358 1278.00055415 500.4375 1272.828125 C503.23889965 1270.18062827 506.09685207 1267.60835577 508.98046875 1265.05078125 C514.63079302 1259.98208431 520.00433244 1254.65864825 525.35961914 1249.2824707 C527.00099171 1247.63571096 528.64768194 1245.99440405 530.29492188 1244.35351562 C535.30893202 1239.3426672 540.24138595 1234.30269679 544.84790039 1228.90893555 C547.05353417 1226.33317703 549.37230478 1223.87196376 551.68359375 1221.390625 C555.98055323 1216.73926951 560.05049517 1211.95237659 564.01953125 1207.015625 C566.00204097 1204.57977688 568.03267478 1202.19639452 570.08935547 1199.82324219 C577.99398145 1190.6638681 585.142867 1180.9441235 592.30859375 1171.203125 C592.87368652 1170.43806641 593.4387793 1169.67300781 594.02099609 1168.88476562 C619.05185043 1134.93504224 640.32376899 1098.83600222 659.30859375 1061.203125 C659.79038086 1060.25034668 660.27216797 1059.29756836 660.76855469 1058.31591797 C679.66638409 1020.66108755 693.83825849 980.68380488 705.30859375 940.203125 C705.65374023 938.9980127 705.99888672 937.79290039 706.35449219 936.55126953 C712.1159159 916.29432014 716.46562135 895.89348276 720.30859375 875.203125 C720.51468262 874.11370605 720.72077148 873.02428711 720.93310547 871.90185547 C723.32208719 859.15157833 724.97371681 846.33711016 726.43359375 833.453125 C726.51427094 832.75099884 726.59494812 832.04887268 726.67807007 831.32546997 C727.28814561 825.95716698 727.81573826 820.58338175 728.30859375 815.203125 C728.44309937 813.76963715 728.44309937 813.76963715 728.58032227 812.30718994 C730.38726395 792.45084754 730.62230252 772.68756143 730.56933594 752.76660156 C730.5579242 748.43961679 730.56474044 744.11287757 730.57620811 739.78590107 C730.61968388 720.50278794 730.28600926 701.40541429 728.30859375 682.203125 C728.22416016 681.35250488 728.13972656 680.50188477 728.05273438 679.62548828 C727.50436241 674.16227858 726.87250796 668.71279421 726.18359375 663.265625 C726.02786392 662.02643311 726.02786392 662.02643311 725.86898804 660.76220703 C720.5060069 618.62598957 711.69702518 576.5496819 698.30859375 536.203125 C697.87917882 534.89861769 697.44982059 533.59409171 697.02050781 532.28955078 C690.52458875 512.61281934 683.52643664 493.23787771 675.30859375 474.203125 C674.8074707 473.04151855 674.30634766 471.87991211 673.79003906 470.68310547 C655.42655195 428.40131941 633.37149243 388.24630035 607.30859375 350.203125 C606.80650391 349.46932617 606.30441406 348.73552734 605.78710938 347.97949219 C594.70890384 331.86506638 582.91785084 316.15343901 570.30859375 301.203125 C569.46296875 300.19636719 568.61734375 299.18960937 567.74609375 298.15234375 C565.43331584 295.40521993 563.10919403 292.66794298 560.78076172 289.93408203 C559.24609252 288.12963682 557.71675954 286.32074981 556.1875 284.51171875 C549.34955679 276.44295491 549.34955679 276.44295491 541.97387695 268.86938477 C540.35629378 267.250853 538.89235262 265.57331319 537.41796875 263.82421875 C532.57498138 258.25513389 527.33714964 253.08213877 522.11157227 247.87573242 C520.37465775 246.144178 518.64315486 244.40734141 516.91210938 242.66992188 C511.7402745 237.49498196 506.56316845 232.39204678 500.99243164 227.6418457 C498.42213471 225.44570828 495.96986351 223.13236369 493.49609375 220.828125 C488.84473826 216.53116552 484.05784534 212.46122358 479.12109375 208.4921875 C476.68524563 206.50967778 474.30186327 204.47904397 471.92871094 202.42236328 C462.76933685 194.5177373 453.04959225 187.36885175 443.30859375 180.203125 C442.54353516 179.63803223 441.77847656 179.07293945 440.99023438 178.49072266 C407.04051099 153.45986832 370.94147097 132.18794976 333.30859375 113.203125 C331.87942627 112.48044434 331.87942627 112.48044434 330.42138672 111.74316406 C295.98241508 94.45927767 258.86181689 79.56231232 221.55859375 69.79736328 C218.50966089 68.99212211 215.47675399 68.13322538 212.44213867 67.27587891 C209.45970188 66.43701819 206.47140806 65.62017953 203.48291016 64.80322266 C201.38329078 64.22374091 199.28932978 63.62670202 197.1953125 63.02734375 C180.80092544 58.42779167 164.02650654 55.36872609 147.30859375 52.203125 C146.20322266 51.99268555 145.09785156 51.78224609 143.95898438 51.56542969 C131.22535346 49.18152698 118.4253791 47.53605304 105.55859375 46.078125 C104.50540451 45.95710922 104.50540451 45.95710922 103.43093872 45.83364868 C98.06265852 45.22357573 92.6891189 44.69302002 87.30859375 44.203125 C86.34429443 44.1144516 85.37999512 44.0257782 84.38647461 43.93441772 C63.36060157 42.06410254 42.40175692 41.76257832 21.30859375 41.765625 C20.44885704 41.76486088 19.58912033 41.76409676 18.70333099 41.76330948 C-11.68380138 41.74105278 -41.53902422 43.17598373 -71.69140625 47.203125 Z " fill="#059B95" transform="translate(727.69140625,-0.203125)"/>
<path d="M0 0 C4.25255031 3.68086312 6.70883761 8.26239438 9.5 13.0625 C13.48715751 19.81478664 17.53511289 26.51235823 21.75 33.125 C26.5739247 40.7053384 31.30200414 48.34100782 36 56 C40.72282803 63.69782463 45.47239709 71.3753224 50.3125 79 C54.9358178 86.28594949 59.46225522 93.62556353 63.94921875 100.99609375 C67.63570752 107.05007514 71.34796751 113.08819762 75.0625 119.125 C75.40967072 119.68924683 75.75684143 120.25349365 76.11453247 120.83483887 C80.50010364 127.96057623 84.90246567 135.07509826 89.34838867 142.16333008 C92.71429666 147.53180246 96.04528032 152.92152529 99.375 158.3125 C103.58639663 165.12906893 107.83387236 171.9208561 112.125 178.6875 C116.3700814 185.38386927 120.53707694 192.1226528 124.65600586 198.8972168 C128.45144685 205.12870783 132.31285595 211.31750511 136.1875 217.5 C141.49844089 225.97568428 146.76673264 234.47614165 152 243 C157.13074816 251.35616224 162.29318553 259.69102027 167.5 268 C172.70681532 276.30898108 177.86910911 284.64392453 183 293 C191.46365024 306.88527452 191.46365024 306.88527452 200.18544579 320.60795403 C203.48293681 325.72254591 206.42316636 330.74317305 208.87171936 336.31958008 C214.27208368 347.92777955 214.27208368 347.92777955 224.21818161 355.34509277 C233.05356301 357.30838278 242.00342739 356.97756757 250.9929111 356.63538361 C254.90422337 356.51227928 258.81514001 356.52735029 262.7280426 356.52685547 C270.11520825 356.50538337 277.49464389 356.36229954 284.87923151 356.17383957 C293.29483624 355.96511106 301.70990477 355.89444616 310.12767875 355.83452415 C327.42232108 355.70836195 344.70984154 355.41159029 362 355 C359.95787262 351.52738078 357.91277375 348.05652018 355.8671875 344.5859375 C355.29637451 343.61519287 354.72556152 342.64444824 354.13745117 341.64428711 C350.55916058 335.57719256 346.90078017 329.57118733 343.125 323.625 C342.57763184 322.76221436 342.03026367 321.89942871 341.46630859 321.01049805 C341.03141113 320.33027588 340.59651367 319.65005371 340.1484375 318.94921875 C330.60174791 303.96933074 321.2761342 288.84967913 311.98144531 273.71264648 C307.52079237 266.4540755 303.02394875 259.21926979 298.5 252 C292.60998978 242.60078369 286.78445807 233.16346943 280.98046875 223.7109375 C276.52004085 216.4529985 272.02360049 209.21871404 267.5 202 C262.29318447 193.69101859 257.13092261 185.35605624 252 177 C246.78025819 168.50175839 241.53618963 160.01958774 236.25 151.5625 C235.33238892 150.09369385 235.33238892 150.09369385 234.39624023 148.59521484 C231.41604469 143.83281205 228.41968695 139.08164069 225.39453125 134.34765625 C224.8315332 133.46456787 224.26853516 132.58147949 223.68847656 131.67163086 C222.63068437 130.01489957 221.56903451 128.36062289 220.50292969 126.70922852 C219.80731934 125.61952759 219.80731934 125.61952759 219.09765625 124.5078125 C218.69039307 123.87504395 218.28312988 123.24227539 217.86352539 122.59033203 C217 121 217 121 217 119 C214.65177975 121.18645205 212.99068816 123.41394386 211.3203125 126.1484375 C210.81072998 126.97754639 210.30114746 127.80665527 209.77612305 128.66088867 C208.95881714 130.00437378 208.95881714 130.00437378 208.125 131.375 C206.94673327 133.29564573 205.76834461 135.21621667 204.58984375 137.13671875 C203.99026855 138.11688965 203.39069336 139.09706055 202.77294922 140.10693359 C200.09453697 144.47751816 197.39013688 148.83187162 194.6875 153.1875 C189.71199617 161.21863288 184.76004245 169.2641188 179.8125 177.3125 C173.91738289 186.90182485 167.98917793 196.46914474 162 206 C159.37278843 202.80304886 157.00623126 199.58259539 154.8203125 196.0703125 C154.22774658 195.12075684 153.63518066 194.17120117 153.0246582 193.19287109 C152.08432739 191.6742749 152.08432739 191.6742749 151.125 190.125 C150.14503052 188.55032959 150.14503052 188.55032959 149.14526367 186.94384766 C143.89706353 178.49300321 138.71279821 170.00344097 133.56884766 161.48876953 C133.02663574 160.59270996 132.48442383 159.69665039 131.92578125 158.7734375 C131.4251416 157.9390918 130.92450195 157.10474609 130.40869141 156.24511719 C129.18413186 154.29346214 127.87413229 152.49473703 126.48046875 150.6640625 C125 148 125 148 125.4296875 145.63671875 C127.60328198 141.98702653 129.81886492 138.3802554 132.125 134.8125 C137.14081971 126.96373542 142.06550357 119.06383549 146.9375 111.125 C148.30987427 108.89061176 149.68226998 106.65623668 151.0546875 104.421875 C151.72081055 103.33712891 152.38693359 102.25238281 153.07324219 101.13476562 C160.43300301 89.16069961 167.85387829 77.22518634 175.3125 65.3125 C181.96751461 54.68187423 188.54843118 44.00678889 195.11328125 33.3203125 C199.36730876 26.39702877 203.64433566 19.48809067 207.92822266 12.58325195 C208.42241699 11.7862085 208.91661133 10.98916504 209.42578125 10.16796875 C209.87904785 9.44013184 210.33231445 8.71229492 210.79931641 7.96240234 C211.81310855 6.30545617 212.77763346 4.61851573 213.73046875 2.92578125 C214.14941406 2.29027344 214.56835938 1.65476562 215 1 C215.66 1 216.32 1 217 1 C218.13818359 2.53442383 218.13818359 2.53442383 219.3984375 4.70703125 C220.10758301 5.91286865 220.10758301 5.91286865 220.83105469 7.14306641 C221.34055664 8.02397949 221.85005859 8.90489258 222.375 9.8125 C223.46948487 11.67167463 224.56588434 13.52972329 225.6640625 15.38671875 C226.22254883 16.33208496 226.78103516 17.27745117 227.35644531 18.25146484 C229.75038796 22.2548823 232.24151347 26.19268539 234.75 30.125 C239.50806522 37.60319897 244.17670757 45.13291651 248.8125 52.6875 C254.00521925 61.14820019 259.22806129 69.58842792 264.5 78 C270.39008421 87.39916952 276.21554238 96.83653131 282.01953125 106.2890625 C286.47995915 113.5470015 290.97639951 120.78128596 295.5 128 C301.39001022 137.39921631 307.21554193 146.83653057 313.01953125 156.2890625 C317.47995947 163.54700202 321.97645067 170.78125353 326.5 178 C333.11019083 188.54997616 339.64217168 199.14678248 346.16015625 209.75390625 C354.15616159 222.76607625 362.20764409 235.74287225 370.3125 248.6875 C376.26304952 258.19147645 382.15150465 267.73229085 388.01879883 277.2878418 C392.47944667 284.54620276 396.97614752 291.78088383 401.5 299 C407.39001022 308.39921631 413.21554193 317.83653057 419.01953125 327.2890625 C423.47995915 334.5470015 427.97639951 341.78128596 432.5 349 C438.38072912 358.38440563 444.19945674 367.80541741 449.9909668 377.24511719 C453.38263279 382.76734377 456.79243946 388.27701019 460.23828125 393.765625 C460.92212891 394.85488281 461.60597656 395.94414063 462.31054688 397.06640625 C463.61014097 399.13307783 464.9120884 401.19827211 466.21679688 403.26171875 C466.80138672 404.19113281 467.38597656 405.12054687 467.98828125 406.078125 C468.49915283 406.88668945 469.01002441 407.69525391 469.53637695 408.52832031 C471.17041641 411.28778911 472.57769875 414.12664609 474 417 C437.5495929 417.52698388 401.09985598 417.93198739 364.64642077 418.17450258 C360.33833028 418.20326722 356.03024728 418.23303679 351.72216797 418.26342773 C350.86454326 418.26946087 350.00691855 418.27549401 349.12330522 418.28170998 C335.25442798 418.38166759 321.38775384 418.56293455 307.52018164 418.77451431 C293.27983544 418.98996175 279.04063898 419.1174245 264.79873002 419.16403538 C256.01621969 419.19552806 247.2399353 419.29476577 238.45934357 419.48207874 C232.42958549 419.60411941 226.40302141 419.64030939 220.37211941 419.61053168 C216.89481965 419.59585241 213.42834129 419.61749822 209.9529953 419.74172592 C189.67290992 420.35997493 189.67290992 420.35997493 183.54081202 414.75033689 C179.14586928 409.23680444 176.10069255 403.21031543 173.27448487 396.78010094 C171.48183131 392.86969136 169.2355267 389.33552423 166.875 385.75 C166.07698034 384.483309 165.28110788 383.2152603 164.48828125 381.9453125 C162.69852494 379.10390316 160.90279017 376.26631669 159.10546875 373.4296875 C153.33647905 364.32296515 147.63748285 355.18042709 142.03125 345.97265625 C132.6697194 330.59973958 123.20278173 315.29240655 113.64550781 300.04052734 C108.37767106 291.62550996 103.17520134 283.17121766 97.98046875 274.7109375 C93.52004085 267.4529985 89.02360049 260.21871404 84.5 253 C78.60998978 243.60078369 72.78445807 234.16346943 66.98046875 224.7109375 C62.52004085 217.4529985 58.02360049 210.21871404 53.5 203 C47.61139244 193.60302204 41.7867463 184.16825829 35.98486328 174.7175293 C31.48414375 167.39305418 26.94237615 160.0955651 22.375 152.8125 C15.14069408 141.27450751 8.05022453 129.65119876 1 118 C-3.53437674 124.32052037 -7.7524076 130.72940141 -11.6875 137.4375 C-15.61722035 144.06072133 -19.61435765 150.62833273 -23.75 157.125 C-28.50730519 164.60369176 -33.17669844 172.13290164 -37.8125 179.6875 C-43.00521925 188.14820019 -48.22806129 196.58842792 -53.5 205 C-58.7068801 213.30893872 -63.86921255 221.6438626 -69 230 C-74.74031552 239.34883107 -80.53011521 248.66489964 -86.35546875 257.9609375 C-90.94022662 265.28501611 -95.47875056 272.63657249 -100 280 C-105.13078937 288.35614052 -110.29342104 296.69087056 -115.5 305 C-120.51394583 313.00579555 -125.50572782 321.02488573 -130.4621582 329.06640625 C-131.46020668 330.68544702 -132.45956839 332.30367803 -133.45898438 333.921875 C-134.08095703 334.9325 -134.70292969 335.943125 -135.34375 336.984375 C-135.88193359 337.85803711 -136.42011719 338.73169922 -136.97460938 339.63183594 C-140.03611807 344.72303338 -143.00660207 349.86846068 -146 355 C-98.81 355 -51.62 355 -3 355 C-2.34 353.35 -1.68 351.7 -1 350 C-0.31839863 348.75209301 0.39646476 347.5217348 1.14453125 346.3125 C1.56718262 345.62502686 1.98983398 344.93755371 2.42529297 344.22924805 C3.11196045 343.12577026 3.11196045 343.12577026 3.8125 342 C4.29605957 341.2160083 4.77961914 340.4320166 5.27783203 339.62426758 C6.84812316 337.08049613 8.42393658 334.5401983 10 332 C11.05369817 330.29576625 12.10708286 328.59133863 13.16015625 326.88671875 C15.88400484 322.47996691 18.61270324 318.07623931 21.34277344 313.67333984 C23.52370661 310.15518748 25.70239794 306.63565005 27.88085938 303.1159668 C28.95752573 301.37644931 30.03434785 299.63702822 31.11132812 297.89770508 C33.89668928 293.39927946 36.68021929 288.89973486 39.4609375 284.3984375 C42.17207883 280.01008748 44.8897397 275.62583276 47.61083984 271.24365234 C48.84770602 269.24597217 50.07579392 267.24325602 51.30078125 265.23828125 C51.92339844 264.23152344 52.54601562 263.22476562 53.1875 262.1875 C53.69667969 261.35605469 54.20585938 260.52460937 54.73046875 259.66796875 C55.14941406 259.11753906 55.56835938 258.56710937 56 258 C56.66 258 57.32 258 58 258 C59.54889602 260.40973663 60.97463789 262.81751742 62.375 265.3125 C66.0527807 271.71673673 69.84594077 278.02048468 73.8125 284.25 C74.30169922 285.024646 74.79089844 285.79929199 75.29492188 286.59741211 C78.06937994 290.98687326 80.88011089 295.34961799 83.72265625 299.6953125 C84.94047567 301.58830272 86.15793173 303.48152675 87.375 305.375 C87.96514893 306.2609082 88.55529785 307.14681641 89.16333008 308.05957031 C89.69466553 308.89327148 90.22600098 309.72697266 90.7734375 310.5859375 C91.25216309 311.3186084 91.73088867 312.0512793 92.22412109 312.80615234 C93 315 93 315 92.2890625 317.51367188 C91.11235198 319.78329687 89.92010716 322.00523076 88.6015625 324.1953125 C88.12879883 324.98309082 87.65603516 325.77086914 87.16894531 326.58251953 C86.65944336 327.42153809 86.14994141 328.26055664 85.625 329.125 C84.8220752 330.4550708 84.8220752 330.4550708 84.00292969 331.81201172 C80.00661662 338.40581122 75.91439829 344.93518621 71.77709961 351.44116211 C67.516348 358.15087273 63.3445425 364.91313439 59.1875 371.6875 C52.08236965 383.26357186 44.90593307 394.79356416 37.69067383 406.30126953 C36.01911057 408.81687913 36.01911057 408.81687913 35.14800245 410.97972631 C33.98493433 413.38271249 32.8991942 415.11292567 31 417 C27.16202066 418.20005654 23.42121676 418.04589102 19.4271698 417.96203613 C17.65054167 417.97228923 17.65054167 417.97228923 15.83802205 417.98274946 C12.55332245 417.99364983 9.27114867 417.96865683 5.98674786 417.92852497 C2.44419984 417.89397485 -1.09823055 417.90566828 -4.64089966 417.91174316 C-10.77764098 417.91593798 -16.91370184 417.89084013 -23.05027199 417.84584045 C-31.92259783 417.78082174 -40.79459467 417.75998886 -49.66713294 417.74993652 C-64.06204794 417.73242766 -78.45660028 417.67918908 -92.85131836 417.60351562 C-106.83437281 417.53008274 -120.81732876 417.47345584 -134.80053711 417.43945312 C-135.66246521 417.43735134 -136.52439332 417.43524955 -137.41244046 417.43308407 C-141.73648326 417.42264377 -146.06052675 417.4125341 -150.38457072 417.40258884 C-186.25663656 417.31965564 -222.12829004 417.17875126 -258 417 C-256.73064261 414.76794064 -255.46003899 412.53660621 -254.1887207 410.30566406 C-253.83245857 409.67890778 -253.47619644 409.05215149 -253.10913849 408.40640259 C-250.27155984 403.43039277 -247.2868025 398.56748204 -244.1875 393.75 C-240.29310058 387.63989584 -236.44872898 381.50549178 -232.6875 375.3125 C-228.34801858 368.17260869 -223.93663535 361.07990316 -219.5 354 C-213.65801129 344.67520229 -207.88476154 335.31168563 -202.1640625 325.91210938 C-197.24461129 317.83133298 -192.25113989 309.80336854 -187.1875 301.8125 C-181.76996031 293.26132735 -176.472694 284.64121994 -171.21240234 275.99267578 C-166.27876651 267.88386875 -161.26791254 259.82979974 -156.1875 251.8125 C-151.84308817 244.95547713 -147.57247668 238.05871783 -143.35620117 231.12231445 C-139.45492769 224.71619493 -135.48279774 218.35568778 -131.5 212 C-126.64064952 204.24355336 -121.81812207 196.46741628 -117.05810547 188.6496582 C-111.96967056 180.29625371 -106.81166452 171.98611956 -101.65722656 163.67333984 C-99.47669789 160.15584 -97.29840722 156.63695749 -95.12036133 153.11791992 C-94.03964876 151.37187791 -92.95875667 149.62594699 -91.87768555 147.88012695 C-89.15406355 143.4816269 -86.43250967 139.08187042 -83.71484375 134.6796875 C-78.47577393 126.19756955 -73.21326934 117.73260328 -67.875 109.3125 C-63.58622397 102.54604397 -59.37156311 95.73887857 -55.20556641 88.89624023 C-47.71183489 76.59005724 -40.10520882 64.35368548 -32.45458984 52.14453125 C-31.51800537 50.64986328 -31.51800537 50.64986328 -30.5625 49.125 C-29.62591553 47.63033203 -29.62591553 47.63033203 -28.67041016 46.10546875 C-23.67031175 38.10943829 -18.76514512 30.05823688 -13.87866211 21.99243164 C-9.37709138 14.57819453 -4.75319285 7.25553512 0 0 Z " fill="#059B95" transform="translate(642,335)"/>
<path d="M0 0 C13.61782252 11.48785541 23.9858719 28.04172085 26 46 C26.22714191 49.73050518 26.29621292 53.45055433 26.3125 57.1875 C26.31797852 58.10168701 26.32345703 59.01587402 26.32910156 59.95776367 C26.11976972 79.99045992 17.68581492 97.72650387 3.98046875 112.12109375 C-12.10732509 127.43285301 -33.20523926 133.68686165 -54.94921875 133.25 C-74.51093455 132.51279571 -94.45500174 124.35475359 -108 110 C-125.25920158 89.72043814 -128.7758705 68.97210609 -127 43 C-126.17782207 37.64576772 -124.36641669 32.86360903 -122 28 C-121.53078125 27.00355469 -121.0615625 26.00710938 -120.578125 24.98046875 C-117.41702191 18.76873122 -113.54826932 13.26898009 -109 8 C-108.42894531 7.33355469 -107.85789062 6.66710937 -107.26953125 5.98046875 C-79.53113538 -24.00538777 -31.28023403 -24.00619145 0 0 Z " fill="#0A99D7" transform="translate(464,869)"/>
<path d="M0 0 C12.7875 -0.061875 25.575 -0.12375 38.75 -0.1875 C42.76510742 -0.21481201 46.78021484 -0.24212402 50.91699219 -0.27026367 C55.87744141 -0.28381348 55.87744141 -0.28381348 58.21075439 -0.28633118 C59.81608588 -0.29089237 61.42140807 -0.3013473 63.02667236 -0.31672668 C78.78134041 -0.45992125 93.69547508 0.92774925 105.8125 12.125 C113.49221476 20.44469099 115.71970185 28.33285686 115.51977539 39.43505859 C114.8858674 52.82195286 108.15826801 59.88261712 99 69 C99.70125 69.3403125 100.4025 69.680625 101.125 70.03125 C112.10468517 75.64043699 119.07669878 82.23009634 123 94 C124.17378532 107.38115266 123.72782829 118.43796968 115.125 129.1875 C104.72319503 140.01491073 89.9107992 143.96593083 75.27126408 144.31795979 C71.07857579 144.35766871 66.88790131 144.33185145 62.6953125 144.29296875 C61.08130201 144.28854443 59.46728717 144.28549222 57.85327148 144.28381348 C51.94378097 144.26824077 46.03438328 144.22635791 40.125 144.1875 C26.88375 144.125625 13.6425 144.06375 0 144 C0 96.48 0 48.96 0 0 Z " fill="#0B99D7" transform="translate(518,855)"/>
<path d="M0 0 C11.55 0 23.1 0 35 0 C44.4273598 11.52232865 44.4273598 11.52232865 46.35546875 16.6796875 C48.74605192 22.57996397 51.72755345 27.65410662 55.25 32.9375 C56.22242003 34.46381384 57.19124076 35.99242744 58.15625 37.5234375 C59.59879008 39.79553748 61.0425639 42.06683426 62.48828125 44.33691406 C63.91288592 46.57624976 65.33190002 48.8190414 66.75 51.0625 C67.18086914 51.73595459 67.61173828 52.40940918 68.05566406 53.10327148 C71 57.77286143 71 57.77286143 71 60 C71.66 60 72.32 60 73 60 C73.41511841 58.89688477 73.41511841 58.89688477 73.83862305 57.77148438 C74.91277351 55.20815536 76.10863204 53.00611531 77.58203125 50.65625 C78.09548096 49.83253906 78.60893066 49.00882813 79.13793945 48.16015625 C79.69054443 47.28230469 80.24314941 46.40445313 80.8125 45.5 C81.98968779 43.61464855 83.16676801 41.72922993 84.34375 39.84375 C85.25060547 38.39548828 85.25060547 38.39548828 86.17578125 36.91796875 C89.07015366 32.28821245 91.94080637 27.64384378 94.8125 23 C95.31434814 22.18982422 95.81619629 21.37964844 96.33325195 20.54492188 C100.56949132 13.70511008 104.78335943 6.85204092 109 0 C120.55 0 132.1 0 144 0 C144 47.52 144 95.04 144 144 C133.77 144 123.54 144 113 144 C112.67 113.64 112.34 83.28 112 52 C93.43097923 79.81948404 93.43097923 79.81948404 75.46020508 108.00170898 C74 110 74 110 71 112 C68.497847 108.25970924 65.99763012 104.51813198 63.4987793 100.77563477 C62.65906878 99.51849228 61.81893866 98.26162991 60.97827148 97.00512695 C51.21172836 82.40602432 41.62670313 67.693389 32 53 C31.67 83.03 31.34 113.06 31 144 C20.77 144 10.54 144 0 144 C0 96.48 0 48.96 0 0 Z " fill="#0999D7" transform="translate(164,855)"/>
<path d="M0 0 C1.25159912 0.00523682 2.50319824 0.01047363 3.79272461 0.01586914 C4.78942421 0.01799156 4.78942421 0.01799156 5.80625916 0.02015686 C7.93590735 0.02577021 10.06545175 0.03832485 12.19506836 0.05102539 C13.63582205 0.05603868 15.07657739 0.06060188 16.51733398 0.06469727 C20.05577938 0.07574394 23.59416375 0.09301747 27.13256836 0.11352539 C30.0585892 5.83096683 32.69917631 11.60729018 35.19506836 17.52368164 C35.77063728 18.8792366 35.77063728 18.8792366 36.35783386 20.26217651 C37.61842182 23.23247185 38.87547173 26.20425098 40.13256836 29.17602539 C41.02333173 31.27648109 41.91436843 33.37682089 42.80566406 35.47705078 C44.65868407 39.84403784 46.51052515 44.21152205 48.36157227 48.5793457 C52.25608812 57.76631276 56.1661481 66.94665434 60.07556152 76.12728882 C61.31650092 79.04264436 62.55627501 81.95849263 63.7956543 84.87451172 C67.49235997 93.57091588 71.1938853 102.26508429 74.92158508 110.94825745 C76.53054564 114.69719248 78.13566093 118.44776763 79.74038696 122.19851685 C80.49588957 123.96130244 81.25332598 125.72326061 82.01278687 127.48434448 C83.05232902 129.89516175 84.08534891 132.30867398 85.11694336 134.72290039 C85.42523575 135.43299759 85.73352814 136.14309479 86.05116272 136.87471008 C87.29178827 139.79365235 88.13256836 141.90632677 88.13256836 145.11352539 C77.24256836 145.11352539 66.35256836 145.11352539 55.13256836 145.11352539 C53.73006836 141.85477539 52.32756836 138.59602539 50.88256836 135.23852539 C50.44912109 134.23321777 50.01567383 133.22791016 49.5690918 132.19213867 C49.21363281 131.36439941 48.85817383 130.53666016 48.49194336 129.68383789 C48.13583984 128.8564209 47.77973633 128.02900391 47.4128418 127.17651367 C45.60160016 122.84321131 43.87684395 118.47421436 42.13256836 114.11352539 C11.93756836 113.61852539 11.93756836 113.61852539 -18.86743164 113.11352539 C-19.85743164 116.08352539 -20.84743164 119.05352539 -21.86743164 122.11352539 C-22.58786019 124.00736303 -23.3271465 125.89425333 -24.09399414 127.76977539 C-24.48586914 128.72883789 -24.87774414 129.68790039 -25.28149414 130.67602539 C-25.68110352 131.64540039 -26.08071289 132.61477539 -26.49243164 133.61352539 C-27.10344727 135.11399414 -27.10344727 135.11399414 -27.72680664 136.64477539 C-30.73854339 143.98463714 -30.73854339 143.98463714 -31.86743164 145.11352539 C-34.24311684 145.2019221 -36.58951838 145.22882844 -38.96508789 145.21118164 C-40.02837563 145.20905922 -40.02837563 145.20905922 -41.11314392 145.20689392 C-43.38544876 145.20127982 -45.65765639 145.18872502 -47.92993164 145.17602539 C-49.4670396 145.1710122 -51.00414909 145.16644898 -52.54125977 145.16235352 C-56.31668806 145.15130581 -60.09204335 145.1340318 -63.86743164 145.11352539 C-63.26850967 141.66714022 -62.38585179 138.65768348 -61.00756836 135.44580078 C-60.62052734 134.5372937 -60.23348633 133.62878662 -59.8347168 132.69274902 C-59.40980957 131.70883179 -58.98490234 130.72491455 -58.54711914 129.71118164 C-58.10045898 128.66627563 -57.65379883 127.62136963 -57.19360352 126.5447998 C-55.71424069 123.08665608 -54.22826497 119.63139331 -52.74243164 116.17602539 C-51.70562302 113.7549397 -50.66933514 111.33363094 -49.63354492 108.91210938 C-47.74597869 104.4999671 -45.85688365 100.08848587 -43.96571159 95.67788792 C-39.02838821 84.16282314 -34.11485898 72.63764713 -29.20544434 61.11065674 C-27.7519652 57.69840679 -26.2975235 54.28656823 -24.84301758 50.87475586 C-20.72778821 41.21712017 -16.62072024 31.55647144 -12.57055664 21.87133789 C-12.25486725 21.11648605 -11.93917786 20.36163422 -11.61392212 19.58390808 C-10.20654354 16.2156027 -8.80317421 12.84569771 -7.40600586 9.47314453 C-6.94210449 8.3580249 -6.47820312 7.24290527 -6.00024414 6.09399414 C-5.60724121 5.14419678 -5.21423828 4.19439941 -4.80932617 3.21582031 C-3.42936777 0.13577318 -3.42936777 0.13577318 0 0 Z " fill="#019E54" transform="translate(1259.867431640625,853.886474609375)"/>
<path d="M0 0 C38.94 0 77.88 0 118 0 C118 24 118 24 114.0625 30.375 C112.41435183 31.95866663 110.72649264 33.50212967 109 35 C107.47943631 36.64792714 105.97912945 38.31478374 104.5 40 C103.7575 40.8146875 103.015 41.629375 102.25 42.46875 C99.92137947 45.0884481 97.70437053 47.7751531 95.5 50.5 C91.88850866 54.96420457 88.11339306 59.23002114 84.24609375 63.47265625 C81.93812402 66.06962393 79.74444137 68.73404013 77.5625 71.4375 C73.70291397 76.20996203 69.62800009 80.73109109 65.47265625 85.24609375 C62.25847895 88.82586467 59.25144628 92.55407098 56.23046875 96.296875 C53.30901801 99.83740724 50.24210861 103.23036672 47.140625 106.61328125 C44.6891561 109.3465796 42.3504987 112.17940157 40 115 C65.74 115.33 91.48 115.66 118 116 C118 125.24 118 134.48 118 144 C78.07 144 38.14 144 -3 144 C-3 117.96161811 -3 117.96161811 3.95581055 110.55444336 C4.46926025 110.11237549 4.98270996 109.67030762 5.51171875 109.21484375 C9.17749807 105.90345383 12.31746836 102.27017952 15.5 98.5 C16.5907023 97.23937298 17.68314568 95.98025021 18.77734375 94.72265625 C23.37942535 89.41234929 27.94786829 84.07329605 32.51611328 78.73388672 C35.00895524 75.82105954 37.50462766 72.91065939 40 70 C41.0000134 68.83334482 42.00001341 67.66667816 43 66.5 C49 59.5 49 59.5 50.50170898 57.74804688 C51.49606605 56.58793663 52.49036992 55.4277808 53.48461914 54.26757812 C56.07050923 51.25021138 58.65747437 48.23377574 61.24609375 45.21875 C61.78041016 44.59613281 62.31472656 43.97351563 62.86523438 43.33203125 C63.87790832 42.15204596 64.89090404 40.97233671 65.90429688 39.79296875 C66.36771484 39.25285156 66.83113281 38.71273437 67.30859375 38.15625 C67.70876709 37.69025391 68.10894043 37.22425781 68.52124023 36.74414062 C70.69775856 34.17702045 72.84538828 31.58553406 75 29 C50.25 28.67 25.5 28.34 0 28 C0 18.76 0 9.52 0 0 Z " fill="#019E55" transform="translate(735,855)"/>
<path d="M0 0 C10.56 0 21.12 0 32 0 C32 37.95 32 75.9 32 115 C55.76 115 79.52 115 104 115 C104 124.57 104 134.14 104 144 C69.68 144 35.36 144 0 144 C0 96.48 0 48.96 0 0 Z " fill="#009E54" transform="translate(1080,855)"/>
<path d="M0 0 C10.56 0 21.12 0 32 0 C32 37.95 32 75.9 32 115 C55.76 115 79.52 115 104 115 C104 124.57 104 134.14 104 144 C69.68 144 35.36 144 0 144 C0 96.48 0 48.96 0 0 Z " fill="#019E55" transform="translate(952,855)"/>
<path d="M0 0 C0.79156494 0.01087646 1.58312988 0.02175293 2.39868164 0.03295898 C14.14084693 0.35233431 23.31641914 4.32292813 32.1640625 12.1875 C41.84334444 22.42110205 45.69508605 35.17570319 45.4375 48.97265625 C44.35022243 60.81039081 39.07526037 72.48708513 30.38671875 80.70703125 C18.72978627 89.30376729 6.37616884 91.81941729 -7.875 90.375 C-18.91850867 87.57183368 -28.33183465 80.64714407 -34.875 71.375 C-41.77379774 58.87321044 -44.12742941 45.63179176 -40.75 31.5625 C-38.98360297 25.96335471 -36.18704776 21.19407207 -32.875 16.375 C-32.153125 15.323125 -31.43125 14.27125 -30.6875 13.1875 C-22.20628137 4.70628137 -11.95837599 -0.2241315 0 0 Z " fill="#E8E9E9" transform="translate(411.875,881.625)"/>
<path d="M0 0 C10.56 0 21.12 0 32 0 C32 47.52 32 95.04 32 144 C21.44 144 10.88 144 0 144 C0 96.48 0 48.96 0 0 Z " fill="#019E55" transform="translate(884,855)"/>
<path d="M0 0 C10.56 0 21.12 0 32 0 C32 47.52 32 95.04 32 144 C21.44 144 10.88 144 0 144 C0 96.48 0 48.96 0 0 Z " fill="#0A99D7" transform="translate(669,855)"/>
<path d="M0 0 C5.81750435 4.30079786 10.13616833 9.61852652 12.1875 16.6171875 C13.29663464 24.81091966 11.33006936 31.75457279 6.8671875 38.66015625 C2.67949125 44.02635719 -2.46257339 46.5005453 -8.8125 48.6171875 C-17.19829582 49.40430191 -24.80137104 48.24922081 -31.5625 42.9921875 C-37.79036773 37.02562891 -40.11539181 31.67351788 -40.3125 22.9921875 C-39.93067232 13.17236291 -37.03040909 7.35292857 -29.8125 0.6171875 C-21.45676348 -6.07114868 -8.88665497 -5.17413792 0 0 Z " fill="#029E55" transform="translate(764.8125,703.3828125)"/>
<path d="M0 0 C6.22634125 -0.09224209 12.45027562 -0.17175675 18.67675781 -0.21972656 C20.79109772 -0.23974016 22.90538299 -0.26695972 25.01953125 -0.30175781 C28.07305448 -0.35072941 31.12584078 -0.37307182 34.1796875 -0.390625 C35.11239471 -0.41127014 36.04510193 -0.43191528 37.006073 -0.45318604 C44.73049785 -0.45577856 51.95773732 1.03017214 57.625 6.5625 C59.58337033 11.45842582 59.7585535 15.79849032 59 21 C56.67020339 26.01802346 54.09610281 27.98279264 49 30 C46.06866911 30.87452862 43.46992438 31.12210653 40.41503906 31.11352539 C39.51440735 31.11344986 38.61377563 31.11337433 37.68585205 31.11329651 C36.72217712 31.10813522 35.7585022 31.10297394 34.765625 31.09765625 C33.77246277 31.0962413 32.77930054 31.09482635 31.75604248 31.09336853 C28.58733088 31.08777588 25.41869021 31.0752247 22.25 31.0625 C20.10026144 31.05748405 17.95052177 31.05292131 15.80078125 31.04882812 C10.53380492 31.03866022 5.26698177 31.01908327 0 31 C0 20.77 0 10.54 0 0 Z " fill="#E9E9E9" transform="translate(550,940)"/>
<path d="M0 0 C5.2658008 -0.06915205 10.53000412 -0.12879947 15.79589844 -0.16479492 C17.58436443 -0.17981184 19.37279403 -0.20023158 21.16113281 -0.22631836 C23.74293031 -0.26301615 26.32423779 -0.27979745 28.90625 -0.29296875 C29.69616333 -0.30845261 30.48607666 -0.32393646 31.29992676 -0.33988953 C38.15704221 -0.34193347 43.60334234 1.00278529 49 5.5 C51.69813522 9.15848844 51.64783441 12.966062 51.40234375 17.37890625 C50.79794687 21.3162879 49.86638268 23.20186452 47 26 C38.16312212 31.5693278 27.8703472 30.45188773 17.875 30.25 C16.13804147 30.22990082 14.40106043 30.2116561 12.6640625 30.1953125 C8.44168931 30.15502268 4.22248941 30.07669506 0 30 C0 20.1 0 10.2 0 0 Z " fill="#E9E9E9" transform="translate(550,883)"/>
<path d="M0 0 C3.3936615 1.69683075 4.06884695 5.63043703 5.40625 9.015625 C5.73161743 9.82360535 6.05698486 10.63158569 6.39221191 11.46405029 C7.43457713 14.05683845 8.46737634 16.65331875 9.5 19.25 C10.19598903 20.98592802 10.8925961 22.72160838 11.58984375 24.45703125 C13.1512239 28.34700046 14.70966009 32.23808365 16.25268555 36.13537598 C16.8854681 37.7142315 17.54616305 39.2818561 18.21289062 40.84667969 C19 43 19 43 19 46 C6.79 46 -5.42 46 -18 46 C-16.0416223 39.47207434 -14.06826113 33.36823544 -11.42578125 27.1484375 C-11.09708542 26.36352936 -10.76838959 25.57862122 -10.42973328 24.76992798 C-9.3953742 22.3029378 -8.3540842 19.83894705 -7.3125 17.375 C-6.60305158 15.68639281 -5.89406327 13.99759222 -5.18554688 12.30859375 C-3.46233074 8.20347913 -1.7328993 4.10103589 0 0 Z " fill="#E4E8E6" transform="translate(1271,893)"/>
</svg>
